<svg width="16" height="16" viewBox="0 0 16 16" fill="none" xmlns="http://www.w3.org/2000/svg">
<circle cx="8" cy="8" r="8" fill="#E7426A"/>
<path d="M11.8555 6.14698L11.1536 5.47217C11.0573 5.37957 10.9403 5.33325 10.8027 5.33325C10.665 5.33325 10.5479 5.37957 10.4517 5.47217L7.06581 8.73216L5.54838 7.26837C5.45202 7.17574 5.33504 7.12947 5.19745 7.12947C5.05977 7.12947 4.94279 7.17574 4.84644 7.26837L4.14451 7.9432C4.04816 8.03581 4 8.14831 4 8.28066C4 8.4129 4.04816 8.5255 4.14451 8.6181L6.71484 11.0891C6.81114 11.1817 6.92816 11.228 7.06581 11.228C7.20339 11.228 7.32041 11.1816 7.41677 11.0891L11.8555 6.82184C11.9518 6.72921 12 6.61673 12 6.48438C12.0001 6.35211 11.9518 6.23961 11.8555 6.14698Z" fill="white"/>
</svg>
